<?xml version="1.0" encoding="UTF-8" standalone="no"?><svg xmlns="http://www.w3.org/2000/svg" xmlns:xlink="http://www.w3.org/1999/xlink" contentStyleType="text/css" height="714px" preserveAspectRatio="none" style="width:926px;height:714px;background:#FFFFFF;" version="1.1" viewBox="0 0 926 714" width="926px" zoomAndPan="magnify"><defs/><g><!--MD5=[b9c7c61cc88cba02a98d4fb609805fa8]
cluster PKG--><g id="cluster_PKG"><path d="M8.5,78.5 L139.5,78.5 A3.75,3.75 0 0 1 142,81 L149,102.1094 L681.5,102.1094 A2.5,2.5 0 0 1 684,104.6094 L684,274 A2.5,2.5 0 0 1 681.5,276.5 L8.5,276.5 A2.5,2.5 0 0 1 6,274 L6,81 A2.5,2.5 0 0 1 8.5,78.5 " fill="none" style="stroke:#000000;stroke-width:1.5;"/><line style="stroke:#000000;stroke-width:1.5;" x1="6" x2="149" y1="102.1094" y2="102.1094"/><text fill="#000000" font-family="sans-serif" font-size="14" font-weight="bold" lengthAdjust="spacing" textLength="130" x="10" y="95.0332">MASRequirements</text></g><!--MD5=[a0b8f1a018f8b8ad524847d926b19f64]
entity MAS--><g id="elem_MAS"><rect fill="#F1F1F1" height="55.2188" rx="2.5" ry="2.5" style="stroke:#181818;stroke-width:0.5;" width="81" x="22" y="159"/><text fill="#000000" font-family="sans-serif" font-size="14" lengthAdjust="spacing" textLength="61" x="32" y="183.5332">«subject»</text><text fill="#000000" font-family="sans-serif" font-size="14" lengthAdjust="spacing" textLength="29" x="32" y="201.1426">MAS</text></g><!--MD5=[20c855a1e87974d011f81bfd1eb61d04]
entity FR_TYPE--><g id="elem_FR_TYPE"><rect fill="#F1F1F1" height="55.2188" rx="2.5" ry="2.5" style="stroke:#181818;stroke-width:0.5;" width="167" x="501" y="115"/><text fill="#000000" font-family="sans-serif" font-size="14" lengthAdjust="spacing" textLength="123" x="511" y="139.5332">«requirement type»</text><text fill="#000000" font-family="sans-serif" font-size="14" lengthAdjust="spacing" textLength="147" x="511" y="157.1426">FunctionalRequirement</text></g><!--MD5=[7aa54bb127904e1e587a3f6ad28c90fc]
entity C_TYPE--><g id="elem_C_TYPE"><rect fill="#F1F1F1" height="55.2188" rx="2.5" ry="2.5" style="stroke:#181818;stroke-width:0.5;" width="143" x="513" y="205"/><text fill="#000000" font-family="sans-serif" font-size="14" lengthAdjust="spacing" textLength="123" x="523" y="229.5332">«requirement type»</text><text fill="#000000" font-family="sans-serif" font-size="14" lengthAdjust="spacing" textLength="65" x="523" y="247.1426">Constraint</text></g><!--MD5=[171b1e4515cced0edf2775c779678fab]
entity MAS_SPEC--><g id="elem_MAS_SPEC"><rect fill="#F1F1F1" height="55.2188" rx="2.5" ry="2.5" style="stroke:#181818;stroke-width:0.5;" width="112" x="246" y="159"/><text fill="#000000" font-family="sans-serif" font-size="14" lengthAdjust="spacing" textLength="92" x="256" y="183.5332">«requirement»</text><text fill="#000000" font-family="sans-serif" font-size="14" lengthAdjust="spacing" textLength="69" x="256" y="201.1426">MAS_Spec</text></g><!--MD5=[19ffe5bbe0088fa542695a455f7b2061]
entity FR09--><g id="elem_FR09"><rect fill="#F1F1F1" height="55.2188" rx="2.5" ry="2.5" style="stroke:#181818;stroke-width:0.5;" width="148" x="228" y="7"/><text fill="#000000" font-family="sans-serif" font-size="14" lengthAdjust="spacing" textLength="92" x="238" y="31.5332">«requirement»</text><text fill="#000000" font-family="sans-serif" font-size="14" lengthAdjust="spacing" textLength="128" x="238" y="49.1426">FR09: Policy Engine</text></g><!--MD5=[5bf7b4e3227fa45c622e8f74eead58ff]
entity FR10--><g id="elem_FR10"><rect fill="#F1F1F1" height="55.2188" rx="2.5" ry="2.5" style="stroke:#181818;stroke-width:0.5;" width="202" x="201" y="473"/><text fill="#000000" font-family="sans-serif" font-size="14" lengthAdjust="spacing" textLength="92" x="211" y="497.5332">«requirement»</text><text fill="#000000" font-family="sans-serif" font-size="14" lengthAdjust="spacing" textLength="182" x="211" y="515.1426">FR10: Risk-Based Approvals</text></g><!--MD5=[07d88222a44b36efdb0662abeba109ba]
entity FR06--><g id="elem_FR06"><rect fill="#F1F1F1" height="55.2188" rx="2.5" ry="2.5" style="stroke:#181818;stroke-width:0.5;" width="189" x="207.5" y="293"/><text fill="#000000" font-family="sans-serif" font-size="14" lengthAdjust="spacing" textLength="92" x="217.5" y="317.5332">«requirement»</text><text fill="#000000" font-family="sans-serif" font-size="14" lengthAdjust="spacing" textLength="169" x="217.5" y="335.1426">FR06: Inter-Agent Protocol</text></g><!--MD5=[85b31cd4493c5ba59be533085da5f7a1]
entity FR12--><g id="elem_FR12"><rect fill="#F1F1F1" height="55.2188" rx="2.5" ry="2.5" style="stroke:#181818;stroke-width:0.5;" width="278" x="163" y="383"/><text fill="#000000" font-family="sans-serif" font-size="14" lengthAdjust="spacing" textLength="92" x="173" y="407.5332">«requirement»</text><text fill="#000000" font-family="sans-serif" font-size="14" lengthAdjust="spacing" textLength="258" x="173" y="425.1426">FR12: Evidence-Based Decision Support</text></g><!--MD5=[953695d73cde9b645e06308e668d94fa]
entity C01--><g id="elem_C01"><rect fill="#F1F1F1" height="55.2188" rx="2.5" ry="2.5" style="stroke:#181818;stroke-width:0.5;" width="191" x="206.5" y="563"/><text fill="#000000" font-family="sans-serif" font-size="14" lengthAdjust="spacing" textLength="92" x="216.5" y="587.5332">«requirement»</text><text fill="#000000" font-family="sans-serif" font-size="14" lengthAdjust="spacing" textLength="171" x="216.5" y="605.1426">C01: Segregation of Duties</text></g><!--MD5=[f360b7a6e3426f3232cf37ce77006ae3]
entity C02--><g id="elem_C02"><rect fill="#F1F1F1" height="55.2188" rx="2.5" ry="2.5" style="stroke:#181818;stroke-width:0.5;" width="219" x="192.5" y="653"/><text fill="#000000" font-family="sans-serif" font-size="14" lengthAdjust="spacing" textLength="92" x="202.5" y="677.5332">«requirement»</text><text fill="#000000" font-family="sans-serif" font-size="14" lengthAdjust="spacing" textLength="199" x="202.5" y="695.1426">C02: Audit Logging &amp; Retention</text></g><g id="elem_GMN9562"><path d="M728,121 L728,138.5 L668.09,142.5 L728,146.5 L728,163.7031 A0,0 0 0 0 728,163.7031 L919,163.7031 A0,0 0 0 0 919,163.7031 L919,131 L909,121 L728,121 A0,0 0 0 0 728,121 " fill="#FEFFDD" style="stroke:#181818;stroke-width:0.5;"/><path d="M909,121 L909,131 L919,131 L909,121 " fill="#FEFFDD" style="stroke:#181818;stroke-width:0.5;"/><text fill="#000000" font-family="sans-serif" font-size="13" lengthAdjust="spacing" textLength="152" x="734" y="139.4951">21 functional requirements</text><text fill="#000000" font-family="sans-serif" font-size="13" lengthAdjust="spacing" textLength="170" x="734" y="155.8467">(see Appendix A.1 for full list)</text></g><g id="elem_GMN9565"><path d="M728,211 L728,228.5 L656.21,232.5 L728,236.5 L728,253.7031 A0,0 0 0 0 728,253.7031 L919,253.7031 A0,0 0 0 0 919,253.7031 L919,221 L909,211 L728,211 A0,0 0 0 0 728,211 " fill="#FEFFDD" style="stroke:#181818;stroke-width:0.5;"/><path d="M909,211 L909,221 L919,221 L909,211 " fill="#FEFFDD" style="stroke:#181818;stroke-width:0.5;"/><text fill="#000000" font-family="sans-serif" font-size="13" lengthAdjust="spacing" textLength="75" x="734" y="229.4951">9 constraints</text><text fill="#000000" font-family="sans-serif" font-size="13" lengthAdjust="spacing" textLength="170" x="734" y="245.8467">(see Appendix A.1 for full list)</text></g><!--MD5=[c9a83bd74aad953ba9102db692bd56d7]
link MAS_SPEC to FR_TYPE--><g id="link_MAS_SPEC_FR_TYPE"><path d="M358.15,161.75 C358.15,161.75 495.86,161.75 495.86,161.75 " fill="none" id="MAS_SPEC-to-FR_TYPE" style="stroke:#181818;stroke-width:1.0;stroke-dasharray:7.0,7.0;"/><polygon fill="#181818" points="500.86,161.75,491.86,157.75,495.86,161.75,491.86,165.75,500.86,161.75" style="stroke:#181818;stroke-width:1.0;"/><text fill="#000000" font-family="sans-serif" font-size="13" lengthAdjust="spacing" textLength="134" x="292.01" y="158.2451">«requires» FR01..FR21</text></g><!--MD5=[6d6ded55995777062d908c76972ae3ca]
link MAS_SPEC to C_TYPE--><g id="link_MAS_SPEC_C_TYPE"><path d="M358.15,209.5 C358.15,209.5 507.87,209.5 507.87,209.5 " fill="none" id="MAS_SPEC-to-C_TYPE" style="stroke:#181818;stroke-width:1.0;stroke-dasharray:7.0,7.0;"/><polygon fill="#181818" points="512.87,209.5,503.87,205.5,507.87,209.5,503.87,213.5,512.87,209.5" style="stroke:#181818;stroke-width:1.0;"/><text fill="#000000" font-family="sans-serif" font-size="13" lengthAdjust="spacing" textLength="118" x="434.01" y="205.9951">«requires» C01..C09</text></g><!--MD5=[93c6f175920acadbf5cdff16f6e10d9d]
link MAS to MAS_SPEC--><g id="link_MAS_MAS_SPEC"><path d="M103.13,186.5 C142.36,186.5 202.11,186.5 245.88,186.5 " fill="none" id="MAS-MAS_SPEC" style="stroke:#181818;stroke-width:1.0;stroke-dasharray:7.0,7.0;"/><text fill="#000000" font-family="sans-serif" font-size="13" lengthAdjust="spacing" textLength="60" x="113.5" y="200.9951">scoped by</text></g><!--MD5=[1d8cb520f913337c1bbf785bcc5424f6]
link FR09 to FR_TYPE--><g id="link_FR09_FR_TYPE"><path d="M367,62.24 C367,92.59 367,137 367,137 C367,137 495.72,137 495.72,137 " fill="none" id="FR09-to-FR_TYPE" style="stroke:#181818;stroke-width:1.0;stroke-dasharray:7.0,7.0;"/><polygon fill="#181818" points="500.72,137,491.72,133,495.72,137,491.72,141,500.72,137" style="stroke:#181818;stroke-width:1.0;"/></g><!--MD5=[a640fa55c4ae6f4ba7fff5f0b5f80fec]
link FR10 to FR_TYPE--><g id="link_FR10_FR_TYPE"><path d="M403.3,500.5 C454.95,500.5 507,500.5 507,500.5 C507,500.5 507,175.29 507,175.29 " fill="none" id="FR10-to-FR_TYPE" style="stroke:#181818;stroke-width:1.0;stroke-dasharray:7.0,7.0;"/><polygon fill="#181818" points="507,170.29,503,179.29,507,175.29,511,179.29,507,170.29" style="stroke:#181818;stroke-width:1.0;"/></g><!--MD5=[539625436e5d55f9a46b0a4827de6e7d]
link FR06 to FR_TYPE--><g id="link_FR06_FR_TYPE"><path d="M387,292.97 C387,248.18 387,164.5 387,164.5 C387,164.5 495.74,164.5 495.74,164.5 " fill="none" id="FR06-to-FR_TYPE" style="stroke:#181818;stroke-width:1.0;stroke-dasharray:7.0,7.0;"/><polygon fill="#181818" points="500.74,164.5,491.74,160.5,495.74,164.5,491.74,168.5,500.74,164.5" style="stroke:#181818;stroke-width:1.0;"/></g><!--MD5=[888dba35ae1e96c4f640dc91d11371ca]
link FR12 to FR_TYPE--><g id="link_FR12_FR_TYPE"><path d="M419,382.6 C419,318.7 419,167.25 419,167.25 C419,167.25 495.78,167.25 495.78,167.25 " fill="none" id="FR12-to-FR_TYPE" style="stroke:#181818;stroke-width:1.0;stroke-dasharray:7.0,7.0;"/><polygon fill="#181818" points="500.78,167.25,491.78,163.25,495.78,167.25,491.78,171.25,500.78,167.25" style="stroke:#181818;stroke-width:1.0;"/></g><!--MD5=[0a9cae61c6f79feb9ab8d27c4c3c4ccf]
link C01 to C_TYPE--><g id="link_C01_C_TYPE"><path d="M397.71,590.5 C471.49,590.5 561,590.5 561,590.5 C561,590.5 561,265.29 561,265.29 " fill="none" id="C01-to-C_TYPE" style="stroke:#181818;stroke-width:1.0;stroke-dasharray:7.0,7.0;"/><polygon fill="#181818" points="561,260.29,557,269.29,561,265.29,565,269.29,561,260.29" style="stroke:#181818;stroke-width:1.0;"/></g><!--MD5=[9468afa7f2038388dcf0be9df213b62b]
link C02 to C_TYPE--><g id="link_C02_C_TYPE"><path d="M411.53,680.5 C499.7,680.5 609,680.5 609,680.5 C609,680.5 609,265.19 609,265.19 " fill="none" id="C02-to-C_TYPE" style="stroke:#181818;stroke-width:1.0;stroke-dasharray:7.0,7.0;"/><polygon fill="#181818" points="609,260.19,605,269.19,609,265.19,613,269.19,609,260.19" style="stroke:#181818;stroke-width:1.0;"/></g><!--MD5=[8daaaf6bd2dd8ee20e323047ffb11fb4]
@startuml
' - - - Model-Based Representation (concise requirements view) - - -
hide stereotype
hide methods
hide fields
skinparam shadowing false
skinparam linetype ortho
left to right direction

package "MASRequirements" as PKG {
rectangle "<<subject>>\nMAS" as MAS
rectangle "<<requirement type>>\nFunctionalRequirement" as FR_TYPE
rectangle "<<requirement type>>\nConstraint" as C_TYPE
rectangle "<<requirement>>\nMAS_Spec" as MAS_SPEC
}

' Illustrative exemplars (not the full list)
rectangle "<<requirement>>\nFR09: Policy Engine" as FR09
rectangle "<<requirement>>\nFR10: Risk-Based Approvals" as FR10
rectangle "<<requirement>>\nFR06: Inter-Agent Protocol" as FR06
rectangle "<<requirement>>\nFR12: Evidence-Based Decision Support" as FR12
rectangle "<<requirement>>\nC01: Segregation of Duties" as C01
rectangle "<<requirement>>\nC02: Audit Logging & Retention" as C02

' Relationships (conceptual)
MAS_SPEC ..> FR_TYPE : «requires» FR01..FR21
MAS_SPEC ..> C_TYPE  : «requires» C01..C09
MAS .. MAS_SPEC : «scoped by»

' Optional exemplars hooked to their types (visual cue)
FR09 ..> FR_TYPE
FR10 ..> FR_TYPE
FR06 ..> FR_TYPE
FR12 ..> FR_TYPE
C01  ..> C_TYPE
C02  ..> C_TYPE

' Notes to keep the figure compact
note right of FR_TYPE
21 functional requirements
(see Appendix A.1 for full list)
end note

note right of C_TYPE
9 constraints
(see Appendix A.1 for full list)
end note
@enduml

@startuml
hide stereotype
hide methods
hide fields
skinparam shadowing false
skinparam linetype ortho
left to right direction

package "MASRequirements" as PKG {
rectangle "<<subject>>\nMAS" as MAS
rectangle "<<requirement type>>\nFunctionalRequirement" as FR_TYPE
rectangle "<<requirement type>>\nConstraint" as C_TYPE
rectangle "<<requirement>>\nMAS_Spec" as MAS_SPEC
}

rectangle "<<requirement>>\nFR09: Policy Engine" as FR09
rectangle "<<requirement>>\nFR10: Risk-Based Approvals" as FR10
rectangle "<<requirement>>\nFR06: Inter-Agent Protocol" as FR06
rectangle "<<requirement>>\nFR12: Evidence-Based Decision Support" as FR12
rectangle "<<requirement>>\nC01: Segregation of Duties" as C01
rectangle "<<requirement>>\nC02: Audit Logging & Retention" as C02

MAS_SPEC ..> FR_TYPE : «requires» FR01..FR21
MAS_SPEC ..> C_TYPE  : «requires» C01..C09
MAS .. MAS_SPEC : «scoped by»

FR09 ..> FR_TYPE
FR10 ..> FR_TYPE
FR06 ..> FR_TYPE
FR12 ..> FR_TYPE
C01  ..> C_TYPE
C02  ..> C_TYPE

note right of FR_TYPE
21 functional requirements
(see Appendix A.1 for full list)
end note

note right of C_TYPE
9 constraints
(see Appendix A.1 for full list)
end note
@enduml

PlantUML version 1.2022.7(Mon Aug 22 19:01:30 CEST 2022)
(EPL source distribution)
Java Runtime: OpenJDK Runtime Environment
JVM: OpenJDK 64-Bit Server VM
Default Encoding: UTF-8
Language: de
Country: DE
--></g></svg>