<?xml version="1.0" encoding="UTF-8" standalone="no"?><svg xmlns="http://www.w3.org/2000/svg" xmlns:xlink="http://www.w3.org/1999/xlink" contentStyleType="text/css" height="798px" preserveAspectRatio="none" style="width:776px;height:798px;background:#FFFFFF;" version="1.1" viewBox="0 0 776 798" width="776px" zoomAndPan="magnify"><defs/><g><!--MD5=[2da11e9c6cad871de0975c8bd0cf0b34]
cluster AG--><g id="cluster_AG"><path d="M245,6 L295,6 A3.75,3.75 0 0 1 297.5,8.5 L304.5,29.6094 L766.5,29.6094 A2.5,2.5 0 0 1 769,32.1094 L769,111.5 A2.5,2.5 0 0 1 766.5,114 L245,114 A2.5,2.5 0 0 1 242.5,111.5 L242.5,8.5 A2.5,2.5 0 0 1 245,6 " fill="none" style="stroke:#000000;stroke-width:1.5;"/><line style="stroke:#000000;stroke-width:1.5;" x1="242.5" x2="304.5" y1="29.6094" y2="29.6094"/><text fill="#000000" font-family="sans-serif" font-size="14" font-weight="bold" lengthAdjust="spacing" textLength="49" x="246.5" y="22.5332">Agents</text></g><!--MD5=[ff0b2e2d929b159800c3ab6a8c74b017]
cluster IN--><g id="cluster_IN"><path d="M239.5,327 L317.5,327 A3.75,3.75 0 0 1 320,329.5 L327,350.6094 L371.5,350.6094 A2.5,2.5 0 0 1 374,353.1094 L374,487.5 A2.5,2.5 0 0 1 371.5,490 L239.5,490 A2.5,2.5 0 0 1 237,487.5 L237,329.5 A2.5,2.5 0 0 1 239.5,327 " fill="none" style="stroke:#000000;stroke-width:1.5;"/><line style="stroke:#000000;stroke-width:1.5;" x1="237" x2="327" y1="350.6094" y2="350.6094"/><text fill="#000000" font-family="sans-serif" font-size="14" font-weight="bold" lengthAdjust="spacing" textLength="77" x="241" y="343.5332">Integration</text></g><!--MD5=[19e9505532104e041733846fbb117f2c]
cluster GOV--><g id="cluster_GOV"><path d="M236.5,514 L324.5,514 A3.75,3.75 0 0 1 327,516.5 L334,537.6094 L374.5,537.6094 A2.5,2.5 0 0 1 377,540.1094 L377,674.5 A2.5,2.5 0 0 1 374.5,677 L236.5,677 A2.5,2.5 0 0 1 234,674.5 L234,516.5 A2.5,2.5 0 0 1 236.5,514 " fill="none" style="stroke:#000000;stroke-width:1.5;"/><line style="stroke:#000000;stroke-width:1.5;" x1="234" x2="334" y1="537.6094" y2="537.6094"/><text fill="#000000" font-family="sans-serif" font-size="14" font-weight="bold" lengthAdjust="spacing" textLength="87" x="238" y="530.5332">Governance</text></g><!--MD5=[7d47619841f4c8487d7e4fc9ee99f721]
cluster OBS--><g id="cluster_OBS"><path d="M227,701 L375,701 A3.75,3.75 0 0 1 377.5,703.5 L384.5,724.6094 L385,724.6094 A2.5,2.5 0 0 1 387.5,727.1094 L387.5,788.5 A2.5,2.5 0 0 1 385,791 L227,791 A2.5,2.5 0 0 1 224.5,788.5 L224.5,703.5 A2.5,2.5 0 0 1 227,701 " fill="none" style="stroke:#000000;stroke-width:1.5;"/><line style="stroke:#000000;stroke-width:1.5;" x1="224.5" x2="384.5" y1="724.6094" y2="724.6094"/><text fill="#000000" font-family="sans-serif" font-size="14" font-weight="bold" lengthAdjust="spacing" textLength="147" x="228.5" y="717.5332">Observability &amp; Audit</text></g><!--MD5=[ca4fca654d8994778fee589c6b3ae58e]
entity R--><g id="elem_R"><rect fill="#F1F1F1" height="55.2188" rx="4" ry="4" style="stroke:#000000;stroke-width:0.5;" width="94" x="258.5" y="42.5"/><text fill="#000000" font-family="sans-serif" font-size="14" lengthAdjust="spacing" textLength="74" x="268.5" y="67.0332">Researcher</text><text fill="#000000" font-family="sans-serif" font-size="14" lengthAdjust="spacing" textLength="37" x="268.5" y="84.6426">Agent</text></g><!--MD5=[770389ab9df153645bc6ef28055eb2b5]
entity A--><g id="elem_A"><rect fill="#F1F1F1" height="55.2188" rx="4" ry="4" style="stroke:#000000;stroke-width:0.5;" width="66" x="431" y="42.5"/><text fill="#000000" font-family="sans-serif" font-size="14" lengthAdjust="spacing" textLength="46" x="441" y="67.0332">Analyst</text><text fill="#000000" font-family="sans-serif" font-size="14" lengthAdjust="spacing" textLength="37" x="441" y="84.6426">Agent</text></g><!--MD5=[9c35c66068622dad62ecac52c54c307b]
entity V--><g id="elem_V"><rect fill="#F1F1F1" height="55.2188" rx="4" ry="4" style="stroke:#000000;stroke-width:0.5;" width="78" x="557" y="42.5"/><text fill="#000000" font-family="sans-serif" font-size="14" lengthAdjust="spacing" textLength="58" x="567" y="67.0332">Reviewer</text><text fill="#000000" font-family="sans-serif" font-size="14" lengthAdjust="spacing" textLength="37" x="567" y="84.6426">Agent</text></g><!--MD5=[2b0f800f5e291cf066feaf8ec24b2082]
entity W--><g id="elem_W"><rect fill="#F1F1F1" height="55.2188" rx="4" ry="4" style="stroke:#000000;stroke-width:0.5;" width="58" x="695" y="42.5"/><text fill="#000000" font-family="sans-serif" font-size="14" lengthAdjust="spacing" textLength="38" x="705" y="67.0332">Writer</text><text fill="#000000" font-family="sans-serif" font-size="14" lengthAdjust="spacing" textLength="37" x="705" y="84.6426">Agent</text></g><!--MD5=[6bccee7b4f544d59dd3f9c2ce756935d]
entity MCP--><g id="elem_MCP"><rect fill="#F1F1F1" height="37.6094" rx="4" ry="4" style="stroke:#000000;stroke-width:0.5;" width="104" x="253.5" y="363"/><text fill="#000000" font-family="sans-serif" font-size="14" lengthAdjust="spacing" textLength="84" x="263.5" y="387.5332">MCP Adapter</text></g><!--MD5=[2dc0453b7aeaf1a97c875d102cbd201a]
entity A2A--><g id="elem_A2A"><rect fill="#F1F1F1" height="37.6094" rx="4" ry="4" style="stroke:#000000;stroke-width:0.5;" width="105" x="253" y="436"/><text fill="#000000" font-family="sans-serif" font-size="14" lengthAdjust="spacing" textLength="85" x="263" y="460.5332">A2A Gateway</text></g><!--MD5=[626ad08abde0879284d52f51a0eb42aa]
entity P--><g id="elem_P"><rect fill="#F1F1F1" height="37.6094" rx="4" ry="4" style="stroke:#000000;stroke-width:0.5;" width="105" x="253" y="550"/><text fill="#000000" font-family="sans-serif" font-size="14" lengthAdjust="spacing" textLength="85" x="263" y="574.5332">Policy Engine</text></g><!--MD5=[1f67e8801336723dc06e2b95a190f0a5]
entity G--><g id="elem_G"><rect fill="#F1F1F1" height="37.6094" rx="4" ry="4" style="stroke:#000000;stroke-width:0.5;" width="111" x="250" y="623"/><text fill="#000000" font-family="sans-serif" font-size="14" lengthAdjust="spacing" textLength="91" x="260" y="647.5332">Approval Gate</text></g><!--MD5=[1200cabd2a84086424de0b397dfd2f71]
entity L--><g id="elem_L"><rect fill="#F1F1F1" height="37.6094" rx="4" ry="4" style="stroke:#000000;stroke-width:0.5;" width="80" x="265.5" y="737"/><text fill="#000000" font-family="sans-serif" font-size="14" lengthAdjust="spacing" textLength="60" x="275.5" y="761.5332">Audit Log</text></g><!--MD5=[36e7cd95dd69b8fc9c44ee72248e17a6]
entity O--><g id="elem_O"><rect fill="#F1F1F1" height="37.6094" rx="4" ry="4" style="stroke:#000000;stroke-width:0.5;" width="100" x="81" y="319"/><text fill="#000000" font-family="sans-serif" font-size="14" lengthAdjust="spacing" textLength="80" x="91" y="343.5332">Orchestrator</text></g><!--MD5=[21a368a7ff05f40a50c0793949707169]
link O to R--><g id="link_O_R"><path d="M181.18,331.67 C237.77,331.67 322,331.67 322,331.67 C322,331.67 322,102.51 322,102.51 " fill="none" id="O-to-R" style="stroke:#181818;stroke-width:1.0;"/><polygon fill="#181818" points="322,97.51,318,106.51,322,102.51,326,106.51,322,97.51" style="stroke:#181818;stroke-width:1.0;"/><text fill="#000000" font-family="sans-serif" font-size="13" lengthAdjust="spacing" textLength="41" x="280" y="301.9951">TaskIO</text></g><!--MD5=[21a368a7ff05f40a50c0793949707169]
link O to R--><!--MD5=[3783fa3c27271295b1dd3fa427233f75]
link O to A--><g id="link_O_A"><path d="M181.21,338 C274.24,338 464,338 464,338 C464,338 464,102.67 464,102.67 " fill="none" id="O-to-A" style="stroke:#181818;stroke-width:1.0;"/><polygon fill="#181818" points="464,97.67,460,106.67,464,102.67,468,106.67,464,97.67" style="stroke:#181818;stroke-width:1.0;"/><text fill="#000000" font-family="sans-serif" font-size="13" lengthAdjust="spacing" textLength="41" x="398.27" y="352.4951">TaskIO</text></g><!--MD5=[54a88c56890d8bd2fcdc95c1e7a9a7ce]
link O to V--><g id="link_O_V"><path d="M181.2,344.33 C301.44,344.33 596,344.33 596,344.33 C596,344.33 596,102.56 596,102.56 " fill="none" id="O-to-V" style="stroke:#181818;stroke-width:1.0;"/><polygon fill="#181818" points="596,97.56,592,106.56,596,102.56,600,106.56,596,97.56" style="stroke:#181818;stroke-width:1.0;"/><text fill="#000000" font-family="sans-serif" font-size="13" lengthAdjust="spacing" textLength="41" x="467.49" y="358.8251">TaskIO</text></g><!--MD5=[01804c2b628ec6b23f231cd7e5be7b82]
link O to W--><g id="link_O_W"><path d="M181.05,350.67 C324.01,350.67 724,350.67 724,350.67 C724,350.67 724,102.68 724,102.68 " fill="none" id="O-to-W" style="stroke:#181818;stroke-width:1.0;"/><polygon fill="#181818" points="724,97.68,720,106.68,724,102.68,728,106.68,724,97.68" style="stroke:#181818;stroke-width:1.0;"/><text fill="#000000" font-family="sans-serif" font-size="13" lengthAdjust="spacing" textLength="41" x="534.52" y="365.1651">TaskIO</text></g><!--MD5=[60b8428a8bdd02abe5de5b93a57d8c18]
link O to MCP--><g id="link_O_MCP"><path d="M165,357.17 C165,369.03 165,382 165,382 C165,382 248.18,382 248.18,382 " fill="none" id="O-to-MCP" style="stroke:#181818;stroke-width:1.0;"/><polygon fill="#181818" points="253.18,382,244.18,378,248.18,382,244.18,386,253.18,382" style="stroke:#181818;stroke-width:1.0;"/><text fill="#000000" font-family="sans-serif" font-size="13" lengthAdjust="spacing" textLength="81" x="112.18" y="396.4951">tool/data calls</text></g><!--MD5=[2ffa6c833edde635dfa07c9ef9311c3b]
link O to A2A--><g id="link_O_A2A"><path d="M148,357.06 C148,390.21 148,455 148,455 C148,455 247.62,455 247.62,455 " fill="none" id="O-to-A2A" style="stroke:#181818;stroke-width:1.0;"/><polygon fill="#181818" points="252.62,455,243.62,451,247.62,455,243.62,459,252.62,455" style="stroke:#181818;stroke-width:1.0;"/><text fill="#000000" font-family="sans-serif" font-size="13" lengthAdjust="spacing" textLength="111" x="36.84" y="469.4951">agent↔agent msgs</text></g><!--MD5=[a61c7c5bc9524a939914acf2bf3890c4]
link O to P--><g id="link_O_P"><path d="M131,357.3 C131,412.82 131,569 131,569 C131,569 247.67,569 247.67,569 " fill="none" id="O-to-P" style="stroke:#181818;stroke-width:1.0;"/><polygon fill="#181818" points="252.67,569,243.67,565,247.67,569,243.67,573,252.67,569" style="stroke:#181818;stroke-width:1.0;"/><text fill="#000000" font-family="sans-serif" font-size="13" lengthAdjust="spacing" textLength="73" x="57" y="535.9751">policy check</text></g><!--MD5=[90ac4ef098dcd13bfaf82e70c9b0f9ec]
link O to G--><g id="link_O_G"><path d="M115,357.02 C115,423.57 115,642 115,642 C115,642 244.89,642 244.89,642 " fill="none" id="O-to-G" style="stroke:#181818;stroke-width:1.0;"/><polygon fill="#181818" points="249.89,642,240.89,638,244.89,642,240.89,646,249.89,642" style="stroke:#181818;stroke-width:1.0;"/><text fill="#000000" font-family="sans-serif" font-size="13" lengthAdjust="spacing" textLength="94" x="20" y="578.9451">approval request</text></g><!--MD5=[1598ffc23c339ba3673ae540841a091d]
link O to L--><g id="link_O_L"><path d="M98,357.05 C98,438.82 98,756 98,756 C98,756 260.49,756 260.49,756 " fill="none" id="O-to-L" style="stroke:#181818;stroke-width:1.0;"/><polygon fill="#181818" points="265.49,756,256.49,752,260.49,756,256.49,760,265.49,756" style="stroke:#181818;stroke-width:1.0;"/><text fill="#000000" font-family="sans-serif" font-size="13" lengthAdjust="spacing" textLength="90" x="7" y="652.2651">events &amp; traces</text></g><!--MD5=[5dce36fe94f1a78c759669dc3405e217]
link R to A--><!--MD5=[2153ef330e6a357041222ff2fb8552c9]
link A to V--><!--MD5=[c997ea498c5c69d63e4081bce44aba01]
link V to W--><!--MD5=[abbb4d78be1bbcb32a88ea8d4f239d04]
@startuml
' - - - Clean technical architecture view - - -
hide stereotype
hide methods
hide fields
skinparam shadowing false
skinparam linetype ortho
skinparam rectangle {
BorderColor black
RoundCorner 8
}
left to right direction

rectangle "Orchestrator" as O

package "Agents" as AG {
rectangle "Researcher\nAgent" as R
rectangle "Analyst\nAgent"    as A
rectangle "Reviewer\nAgent"   as V
rectangle "Writer\nAgent"     as W
}

package "Integration" as IN {
rectangle "MCP Adapter"  as MCP
rectangle "A2A Gateway"  as A2A
}

package "Governance" as GOV {
rectangle "Policy Engine" as P
rectangle "Approval Gate" as G
}

package "Observability & Audit" as OBS {
rectangle "Audit Log"     as L
}

' - - - Connections (single hop from orchestrator) - - -
O -right-> R : TaskIO
O -right-> A : TaskIO
O -right-> V : TaskIO
O -right-> W : TaskIO

O -down-> MCP : tool/data calls
O -down-> A2A : agent↔agent msgs
O -down-> P   : policy check
O -down-> G   : approval request
O -down-> L   : events & traces

' layout helpers (invisible)
O -[hidden]-> R
R -[hidden]-> A
A -[hidden]-> V
V -[hidden]-> W
@enduml

@startuml
hide stereotype
hide methods
hide fields
skinparam shadowing false
skinparam linetype ortho
skinparam rectangle {
BorderColor black
RoundCorner 8
}
left to right direction

rectangle "Orchestrator" as O

package "Agents" as AG {
rectangle "Researcher\nAgent" as R
rectangle "Analyst\nAgent"    as A
rectangle "Reviewer\nAgent"   as V
rectangle "Writer\nAgent"     as W
}

package "Integration" as IN {
rectangle "MCP Adapter"  as MCP
rectangle "A2A Gateway"  as A2A
}

package "Governance" as GOV {
rectangle "Policy Engine" as P
rectangle "Approval Gate" as G
}

package "Observability & Audit" as OBS {
rectangle "Audit Log"     as L
}

O -right-> R : TaskIO
O -right-> A : TaskIO
O -right-> V : TaskIO
O -right-> W : TaskIO

O -down-> MCP : tool/data calls
O -down-> A2A : agent↔agent msgs
O -down-> P   : policy check
O -down-> G   : approval request
O -down-> L   : events & traces

O -[hidden]-> R
R -[hidden]-> A
A -[hidden]-> V
V -[hidden]-> W
@enduml

PlantUML version 1.2022.7(Mon Aug 22 19:01:30 CEST 2022)
(EPL source distribution)
Java Runtime: OpenJDK Runtime Environment
JVM: OpenJDK 64-Bit Server VM
Default Encoding: UTF-8
Language: de
Country: DE
--></g></svg>